<svg xmlns="http://www.w3.org/2000/svg" viewBox="0 0 400 300">
  <defs>
    <linearGradient id="bg" x1="0%" y1="0%" x2="0%" y2="100%">
      <stop offset="0%" stop-color="#FF8C00"/>
      <stop offset="100%" stop-color="#FF4500"/>
    </linearGradient>
  </defs>
  <rect width="400" height="300" fill="url(#bg)"/>
  <circle cx="80" cy="50" r="12" fill="#FFD700" opacity="0.8"/>
  <circle cx="200" cy="30" r="16" fill="#FFD700" opacity="0.9"/>
  <circle cx="330" cy="55" r="11" fill="#FFD700" opacity="0.7"/>
  <line x1="50" y1="20" x2="80" y2="50" stroke="#FFD700" stroke-width="2" stroke-dasharray="4,4" opacity="0.6"/>
  <line x1="160" y1="0" x2="200" y2="30" stroke="#FFD700" stroke-width="2" stroke-dasharray="4,4" opacity="0.6"/>
  <line x1="360" y1="18" x2="330" y2="55" stroke="#FFD700" stroke-width="2" stroke-dasharray="4,4" opacity="0.6"/>
  <rect x="0" y="250" width="400" height="50" fill="#8B0000" opacity="0.6"/>
  <ellipse cx="200" cy="180" rx="70" ry="35" fill="#8B4513"/>
  <rect x="130" y="145" width="140" height="70" rx="5" fill="#A0522D"/>
  <ellipse cx="200" cy="145" rx="70" ry="25" fill="#CD853F"/>
  <ellipse cx="200" cy="215" rx="70" ry="25" fill="#8B4513"/>
  <line x1="130" y1="148" x2="270" y2="148" stroke="#FFD700" stroke-width="3"/>
  <line x1="130" y1="212" x2="270" y2="212" stroke="#FFD700" stroke-width="3"/>
  <line x1="140" y1="148" x2="130" y2="212" stroke="#FFD700" stroke-width="2"/>
  <line x1="165" y1="148" x2="155" y2="212" stroke="#FFD700" stroke-width="2"/>
  <line x1="190" y1="148" x2="185" y2="212" stroke="#FFD700" stroke-width="2"/>
  <line x1="215" y1="148" x2="215" y2="212" stroke="#FFD700" stroke-width="2"/>
  <line x1="240" y1="148" x2="245" y2="212" stroke="#FFD700" stroke-width="2"/>
  <line x1="260" y1="148" x2="270" y2="212" stroke="#FFD700" stroke-width="2"/>
  <rect x="148" y="100" width="10" height="55" rx="5" fill="#5c3a1e" transform="rotate(-15 153 128)"/>
  <circle cx="147" cy="98" r="8" fill="#D2691E"/>
  <rect x="242" y="95" width="10" height="55" rx="5" fill="#5c3a1e" transform="rotate(15 247 123)"/>
  <circle cx="252" cy="93" r="8" fill="#D2691E"/>
</svg>
