<svg xmlns="http://www.w3.org/2000/svg" viewBox="0 0 400 300">
  <defs>
    <linearGradient id="bg" x1="0%" y1="0%" x2="0%" y2="100%">
      <stop offset="0%" stop-color="#0a1a0a"/>
      <stop offset="60%" stop-color="#0d2a0d"/>
      <stop offset="100%" stop-color="#1a3a0a"/>
    </linearGradient>
  </defs>
  <rect width="400" height="300" fill="url(#bg)"/>
  <circle cx="40" cy="25" r="1.5" fill="#AAFFAA" opacity="0.6"/>
  <circle cx="100" cy="15" r="1" fill="white" opacity="0.5"/>
  <circle cx="200" cy="20" r="1.5" fill="white" opacity="0.7"/>
  <circle cx="300" cy="10" r="1" fill="#AAFFAA" opacity="0.6"/>
  <circle cx="380" cy="30" r="1.5" fill="white" opacity="0.5"/>
  <circle cx="60" cy="60" r="1" fill="#AAFFAA" opacity="0.8"/>
  <circle cx="340" cy="45" r="1" fill="#AAFFAA" opacity="0.7"/>
  <rect x="30" y="190" width="18" height="110" fill="#1a0d05"/>
  <polygon points="39,80 10,195 68,195" fill="#1a4d1a"/>
  <polygon points="39,110 15,195 63,195" fill="#1f5c1f"/>
  <rect x="85" y="170" width="16" height="130" fill="#1a0d05"/>
  <polygon points="93,60 65,175 121,175" fill="#0d3d0d"/>
  <polygon points="93,90 70,175 116,175" fill="#1a5c1a"/>
  <rect x="160" y="175" width="18" height="125" fill="#1a0d05"/>
  <polygon points="169,65 140,180 198,180" fill="#1a4d1a"/>
  <polygon points="169,95 145,180 193,180" fill="#226622"/>
  <rect x="270" y="165" width="18" height="135" fill="#1a0d05"/>
  <polygon points="279,55 250,170 308,170" fill="#0d3d0d"/>
  <polygon points="279,85 255,170 303,170" fill="#1f5c1f"/>
  <rect x="340" y="180" width="16" height="120" fill="#1a0d05"/>
  <polygon points="348,75 320,185 376,185" fill="#1a4d1a"/>
  <polygon points="348,105 325,185 371,185" fill="#226622"/>
  <circle cx="80" cy="230" r="4" fill="#AAFF66" opacity="0.9"/>
  <circle cx="160" cy="250" r="3" fill="#88FF44" opacity="0.8"/>
  <circle cx="240" cy="235" r="5" fill="#CCFF66" opacity="0.7"/>
  <circle cx="310" cy="255" r="3" fill="#AAFF66" opacity="0.9"/>
  <circle cx="50" cy="260" r="3" fill="#88FF44" opacity="0.8"/>
  <circle cx="380" cy="245" r="4" fill="#CCFF66" opacity="0.7"/>
  <ellipse cx="120" cy="200" r="6" fill="#AAFF66" opacity="0.6"/>
  <ellipse cx="280" cy="210" r="5" fill="#88FF44" opacity="0.7"/>
  <path d="M0 270 Q100 255 200 265 Q300 275 400 260 L400 300 L0 300Z" fill="#0a1a0a"/>
</svg>
