<svg xmlns="http://www.w3.org/2000/svg" viewBox="0 0 400 300">
  <defs>
    <linearGradient id="bg" x1="0%" y1="0%" x2="0%" y2="100%">
      <stop offset="0%" stop-color="#FFF7E6"/>
      <stop offset="100%" stop-color="#FFE0B2"/>
    </linearGradient>
  </defs>
  <rect width="400" height="300" fill="url(#bg)"/>
  <circle cx="200" cy="60" r="40" fill="#FFD700" opacity="0.9"/>
  <line x1="200" y1="10" x2="200" y2="0" stroke="#FFD700" stroke-width="3"/>
  <line x1="240" y1="24" x2="248" y2="16" stroke="#FFD700" stroke-width="3"/>
  <line x1="250" y1="60" x2="260" y2="60" stroke="#FFD700" stroke-width="3"/>
  <line x1="240" y1="96" x2="248" y2="104" stroke="#FFD700" stroke-width="3"/>
  <line x1="160" y1="24" x2="152" y2="16" stroke="#FFD700" stroke-width="3"/>
  <line x1="150" y1="60" x2="140" y2="60" stroke="#FFD700" stroke-width="3"/>
  <line x1="160" y1="96" x2="152" y2="104" stroke="#FFD700" stroke-width="3"/>
  <ellipse cx="200" cy="280" rx="200" ry="30" fill="#C8E6C9" opacity="0.6"/>
  <rect x="0" y="260" width="400" height="40" fill="#A5D6A7"/>
  <circle cx="120" cy="220" r="18" fill="#FFDCAA"/>
  <rect x="105" y="235" width="30" height="50" rx="8" fill="#FF7043"/>
  <rect x="85" y="248" width="25" height="12" rx="5" fill="#FF7043"/>
  <circle cx="280" cy="225" r="18" fill="#FFDCAA"/>
  <rect x="265" y="240" width="30" height="50" rx="8" fill="#42A5F5"/>
  <rect x="290" y="248" width="25" height="12" rx="5" fill="#42A5F5"/>
  <ellipse cx="200" cy="230" rx="30" ry="20" fill="#FF9800"/>
  <circle cx="185" cy="225" r="8" fill="#FF6F00"/>
  <circle cx="200" cy="220" r="8" fill="#FFA000"/>
  <circle cx="215" cy="225" r="8" fill="#FF6F00"/>
  <path d="M120 235 Q160 210 200 228" stroke="#FF7043" stroke-width="3" fill="none"/>
  <path d="M280 240 Q240 215 200 228" stroke="#42A5F5" stroke-width="3" fill="none"/>
</svg>
